<?xml version="1.0" encoding="UTF-8" standalone="no"?><!DOCTYPE svg PUBLIC "-//W3C//DTD SVG 1.1//EN" "http://www.w3.org/Graphics/SVG/1.1/DTD/svg11.dtd"><svg width="100%" height="100%" viewBox="0 0 492 746" version="1.1" xmlns="http://www.w3.org/2000/svg" xmlns:xlink="http://www.w3.org/1999/xlink" xml:space="preserve" xmlns:serif="http://www.serif.com/" style="fill-rule:evenodd;clip-rule:evenodd;stroke-linecap:round;stroke-linejoin:round;stroke-miterlimit:1.5;"><g id="Whorl"><path d="M142.942,423.988c39.086,-2.611 15.519,81.955 -21.863,42.588c-53.481,-56.321 30.654,-157.537 88.627,-72.494c48.62,71.322 -54.297,182.264 -120.738,125.268c-64.518,-55.346 -17.385,-328.299 147.035,-264.187c60.338,23.527 152.498,298.306 -26.163,346.856c-0.259,0.07 -178.482,99.869 -177.959,-279.123c0.044,-31.295 0.477,-344.858 257.902,-294.142c194.257,38.272 223.044,500.123 106.324,611.613c-0.591,0.565 -177.9,179.189 -306.567,18.071c-91.014,-113.967 -56.373,-136.326 -55.072,-260.207" style="fill:none;stroke:#fff;stroke-width:22.92px;"/></g></svg>