<?xml version="1.0" encoding="UTF-8" standalone="no"?><!DOCTYPE svg PUBLIC "-//W3C//DTD SVG 1.1//EN" "http://www.w3.org/Graphics/SVG/1.1/DTD/svg11.dtd"><svg width="100%" height="100%" viewBox="0 0 188 188" version="1.1" xmlns="http://www.w3.org/2000/svg" xmlns:xlink="http://www.w3.org/1999/xlink" xml:space="preserve" xmlns:serif="http://www.serif.com/" style="fill-rule:evenodd;clip-rule:evenodd;stroke-linecap:round;stroke-linejoin:round;stroke-miterlimit:1.5;"><g id="Layer4"><g><g><circle cx="93.81" cy="93.3" r="90.16" style="fill:#ebebeb;"/><ellipse cx="92.574" cy="92.934" rx="47.391" ry="90.18" style="fill:#b1b1b1;"/><circle cx="93.81" cy="93.3" r="90.16" style="fill:#7c94cc;"/><path d="M16.837,139.321c-0,0 18.706,-92.028 159.779,-79.067" style="fill:none;stroke:#fff;stroke-width:4.17px;stroke-dasharray:4.17,12.5,0,0,0,0;"/><path d="M12.681,128.708c-0,0 35.262,-83.97 169.952,-40.059" style="fill:none;stroke:#fff;stroke-width:4.17px;stroke-dasharray:4.17,12.5,0,0,0,0;"/><path d="M28.467,154.94c-0,-0 -13.065,-91.163 124.203,-126.194" style="fill:none;stroke:#fff;stroke-width:4.17px;stroke-dasharray:4.17,12.5,0,0,0,0;"/><path d="M45.512,169.245c-0,0 -43.568,-83.192 74.043,-162.168" style="fill:none;stroke:#fff;stroke-width:4.17px;stroke-dasharray:4.17,12.5,0,0,0,0;"/><path d="M72.514,180.159c0,-0 -70.97,-60.836 11.668,-175.904" style="fill:none;stroke:#fff;stroke-width:4.17px;stroke-dasharray:4.17,12.5,0,0,0,0;"/><path d="M45.696,18.655l-0.093,149.981" style="fill:none;stroke:#0e172c;stroke-width:4.17px;"/><path d="M5.989,89.428l175.111,22.441" style="fill:none;stroke:#0e172c;stroke-width:4.17px;"/><circle cx="93.81" cy="93.3" r="90.16" style="fill:none;stroke:#fff;stroke-width:4.17px;"/><path d="M59.708,120.894l1.035,-11.22l10.755,-3.36" style="fill:none;stroke:#fff;stroke-width:4.17px;stroke-linejoin:miter;stroke-miterlimit:10;"/><path d="M171.115,139.265c0,0 -43.951,23.551 -110.372,-29.591" style="fill:none;stroke:#fff;stroke-width:4.17px;"/><path d="M31.842,62.381l-2.784,10.917l-11.149,1.629" style="fill:none;stroke:#fff;stroke-width:4.17px;stroke-linejoin:miter;stroke-miterlimit:10;"/><path d="M18.243,45.184c0,-0 -3.746,11.382 10.815,28.114" style="fill:none;stroke:#fff;stroke-width:4.17px;"/></g></g></g></svg>