<?xml version="1.0" encoding="UTF-8" standalone="no"?><!DOCTYPE svg PUBLIC "-//W3C//DTD SVG 1.1//EN" "http://www.w3.org/Graphics/SVG/1.1/DTD/svg11.dtd"><svg width="100%" height="100%" viewBox="0 0 100 100" version="1.1" xmlns="http://www.w3.org/2000/svg" xmlns:xlink="http://www.w3.org/1999/xlink" xml:space="preserve" xmlns:serif="http://www.serif.com/" style="fill-rule:evenodd;clip-rule:evenodd;stroke-linecap:round;stroke-linejoin:round;stroke-miterlimit:1.5;"><g id="Layer1"></g><g id="Layer2"></g><g id="Layer5"></g><g id="Layer6"></g><g id="Layer8"><g id="Layer61" serif:id="Layer6"><clipPath id="_clip1"><circle cx="49.927" cy="50.071" r="48.334"/></clipPath><g clip-path="url(#_clip1)"><g><circle cx="97.09" cy="34.903" r="43.081" style="fill:none;stroke:#fff;stroke-width:3px;"/><path d="M107.956,-1.063c19.85,2.192 34.186,20.089 31.993,39.939c-2.193,19.85 -20.089,34.186 -39.94,31.993c-19.85,-2.193 -34.185,-20.089 -31.993,-39.94c2.193,-19.85 20.09,-34.185 39.94,-31.992Z" style="fill:none;stroke:#fff;stroke-width:3px;"/><circle cx="111.082" cy="34.903" r="29.089" style="fill:none;stroke:#fff;stroke-width:3px;"/><circle cx="118.098" cy="34.903" r="22.072" style="fill:none;stroke:#fff;stroke-width:3px;"/></g><g><circle cx="7.6" cy="62.835" r="41.886" style="fill:none;stroke:#fff;stroke-width:3px;"/><path d="M-2.965,97.804c-19.3,-2.132 -33.238,-19.532 -31.106,-38.832c2.132,-19.299 19.532,-33.237 38.832,-31.105c19.3,2.132 33.237,19.532 31.105,38.832c-2.132,19.299 -19.532,33.237 -38.831,31.105Z" style="fill:none;stroke:#fff;stroke-width:3px;"/><circle cx="-6.004" cy="62.835" r="28.282" style="fill:none;stroke:#fff;stroke-width:3px;"/><circle cx="-12.917" cy="62.835" r="21.369" style="fill:none;stroke:#fff;stroke-width:3px;"/></g><path d="M49.927,1.737c26.676,0 48.334,21.658 48.334,48.334c0,26.676 -21.658,48.334 -48.334,48.334c-26.676,0 -48.334,-21.658 -48.334,-48.334c0,-26.676 21.658,-48.334 48.334,-48.334Zm0,3c-25.02,0 -45.334,20.314 -45.334,45.334c0,25.021 20.314,45.334 45.334,45.334c25.021,0 45.334,-20.313 45.334,-45.334c0,-25.02 -20.313,-45.334 -45.334,-45.334Z" style="fill:#fff;"/></g></g></g><g id="Layer62" serif:id="Layer6"></g><g id="Layer3"></g><g id="Layer7"></g><g id="Layer71" serif:id="Layer7"></g><g id="Layer4"></g></svg>