<?xml version="1.0" encoding="UTF-8" standalone="no"?>
<!DOCTYPE svg PUBLIC "-//W3C//DTD SVG 1.1//EN" "http://www.w3.org/Graphics/SVG/1.1/DTD/svg11.dtd">
<svg width="100%" height="100%" viewBox="0 0 126 127" version="1.1" xmlns="http://www.w3.org/2000/svg" xmlns:xlink="http://www.w3.org/1999/xlink" xml:space="preserve" xmlns:serif="http://www.serif.com/" style="fill-rule:evenodd;clip-rule:evenodd;stroke-linecap:round;stroke-miterlimit:10;">
    <g transform="matrix(1,0,0,1,-240,-265)">
        <g id="Layer4">
            <g>
                <g transform="matrix(1,-0,-0,1,240,265)">
                    <path d="M5.377,58.683L2.377,63.183L5.377,67.683" style="fill:none;stroke:white;stroke-width:2px;"/>
                    <path d="M120.651,58.683L123.651,63.183L120.651,67.683" style="fill:none;stroke:white;stroke-width:2px;"/>
                    <path d="M2.377,63.183L123.651,63.183" style="fill:none;stroke:white;stroke-width:2px;stroke-linejoin:round;stroke-miterlimit:1.5;"/>
                </g>
                <g transform="matrix(6.12323e-17,1,-1,6.12323e-17,631.196,25.1689)">
                    <g transform="matrix(6.12323e-17,-1,1,6.12323e-17,239.831,391.196)">
                        <path d="M67.514,5.546L63.014,2.546L58.514,5.546" style="fill:none;stroke:rgb(254,255,255);stroke-width:2px;"/>
                        <path d="M67.514,120.82L63.014,123.82L58.514,120.82" style="fill:none;stroke:rgb(254,255,255);stroke-width:2px;"/>
                        <path d="M63.014,2.546L63.014,123.82" style="fill:none;stroke:rgb(254,255,255);stroke-width:2px;stroke-linejoin:round;stroke-miterlimit:1.5;"/>
                    </g>
                </g>
            </g>
        </g>
    </g>
</svg>
